<svg data-v-423bf9ae="" xmlns="http://www.w3.org/2000/svg" viewBox="0 0 418 91" class="iconLeft"><!----><!----><!----><g data-v-423bf9ae="" id="16be7c4e-4437-4d07-83ac-e7cf32c1898d" fill="black" transform="matrix(5.424954414367676,0,0,5.424954414367676,108.19291687011719,-1.7088608741760254)"><path d="M0.74 8.88C0.74 12.01 3.21 14.14 6.03 14.14C8.55 14.14 10.50 12.56 10.93 10.46L9.81 10.46C9.38 12.11 7.91 13.13 6.03 13.13C3.81 13.13 1.85 11.44 1.85 8.88C1.85 6.33 3.81 4.65 6.03 4.65C8.16 4.65 9.55 5.99 9.77 7.78L10.89 7.78C10.70 5.61 8.82 3.64 6.03 3.64C3.19 3.64 0.74 5.75 0.74 8.88ZM15.53 6.58C13.80 6.58 12.59 7.56 12.49 9.02L13.48 9.02C13.54 8.18 14.34 7.49 15.48 7.49C16.77 7.49 17.53 8.16 17.53 9.67L17.53 9.94L15.26 9.93C13.34 9.93 12.19 10.79 12.19 12.01C12.19 13.27 13.24 14.14 14.59 14.14C15.88 14.14 16.90 13.55 17.65 12.96L17.86 14L18.55 14L18.55 9.67C18.55 7.70 17.46 6.58 15.53 6.58ZM13.23 12.00C13.23 11.19 13.94 10.79 15.27 10.79L17.53 10.79L17.53 12.11C16.77 12.70 15.82 13.22 14.80 13.22C13.94 13.22 13.23 12.78 13.23 12.00ZM21.98 3.08L20.93 3.08L20.93 14L21.98 14ZM25.52 3.08L24.47 3.08L24.47 14L25.52 14ZM31.29 8.88C31.29 12.01 33.74 14.14 36.64 14.14C39.56 14.14 42.01 12.01 42.01 8.88C42.01 5.75 39.56 3.64 36.64 3.64C33.74 3.64 31.29 5.75 31.29 8.88ZM32.40 8.88C32.40 6.30 34.34 4.61 36.64 4.61C38.96 4.61 40.89 6.30 40.89 8.88C40.89 11.47 38.96 13.17 36.64 13.17C34.34 13.17 32.40 11.47 32.40 8.88ZM49.35 6.72L49.35 12.18C48.41 12.82 47.46 13.22 46.63 13.22C45.54 13.22 44.94 12.60 44.94 11.42L44.94 6.72L43.89 6.72L43.89 11.47C43.89 13.22 44.83 14.14 46.37 14.14C47.45 14.14 48.40 13.78 49.48 13.06L49.66 14L50.40 14L50.40 6.72ZM51.95 7.62L53.09 7.62L53.09 12.00C53.09 13.57 53.96 14.14 55.08 14.14C55.82 14.14 56.52 13.99 57.09 13.73L56.98 12.84C56.46 13.06 55.87 13.22 55.23 13.22C54.54 13.22 54.12 12.85 54.12 11.98L54.12 7.62L57.05 7.62L57.05 6.72L54.12 6.72L54.12 4.65L53.12 4.91L53.12 6.72L51.95 6.72Z"></path></g><!----><g data-v-423bf9ae="" id="be881317-39b1-4db7-b139-06f120665b98" transform="matrix(1.3245422840118408,0,0,1.3245422840118408,-20.034339904785156,-21.201112747192383)" stroke="none" fill="black" style="--darkreader-inline-stroke: none;" data-darkreader-inline-stroke=""><path d="M84.723 59.429a1.498 1.498 0 0 0-1.91-.922c-8.734 3.049-15.025 4.208-20.017 4.256l.036-8.597 9.505 3.826a1.501 1.501 0 0 0 1.953-.831 1.5 1.5 0 0 0-.831-1.952l-10.612-4.271.02-4.82 8.288 3.255a1.501 1.501 0 0 0 1.097-2.792L62.88 42.9l.02-4.701 7.192 3.059a1.5 1.5 0 1 0 1.174-2.76l-8.352-3.552.015-3.453 4.719 2.241a1.5 1.5 0 0 0 1.287-2.71l-5.992-2.846.012-2.823 1.773.842a1.5 1.5 0 0 0 1.287-2.71l-3.906-1.855-.022-.007a1.524 1.524 0 0 0-.32-.107c-.013-.003-.026-.002-.04-.004a1.531 1.531 0 0 0-.256-.027h-.006c-.012 0-.022.003-.034.003-.036.001-.071.007-.108.011a1.427 1.427 0 0 0-.228.037c-.037.009-.072.021-.108.033a1.452 1.452 0 0 0-.214.092c-.02.011-.043.015-.063.027l-5.119 2.976a1.5 1.5 0 0 0 1.508 2.594l2.854-1.659-.011 2.687-6.569 3.819a1.5 1.5 0 0 0 1.508 2.594l5.047-2.935-.014 3.413-7.715 5.014-5.285-4.54a1.5 1.5 0 0 0-1.908-.039l-7.483 5.918-3.246-3.792a1.499 1.499 0 0 0-2.001-.252l-8.713 6.117a1.5 1.5 0 1 0 1.723 2.455l7.598-5.334 2.284 2.669-5.009 3.962a1.5 1.5 0 0 0 1.861 2.352l13.876-10.976 3.681 3.162-2.582 1.678a1.5 1.5 0 1 0 1.635 2.516l11.268-7.324-.019 4.45-11.198 7.54a1.5 1.5 0 0 0 1.676 2.489l9.507-6.402-.019 4.399-4.977 3.108a1.501 1.501 0 0 0 1.589 2.545l3.373-2.106-.033 7.864c-5.017-.435-8.711-2.054-12.661-3.791-6.345-2.79-13.537-5.951-27.441-4.733a1.5 1.5 0 0 0-1.363 1.625 1.496 1.496 0 0 0 1.625 1.363c13.14-1.147 19.663 1.718 25.972 4.491 4.797 2.109 9.442 4.152 16.491 4.152 5.362-.001 12.115-1.184 21.382-4.419a1.501 1.501 0 0 0 .921-1.911zM76.403 69.484c-14.75 4.15-20.575 1.831-26.743-.624-3.644-1.449-7.411-2.949-13.01-3.324a1.5 1.5 0 0 0-.201 2.994c5.128.343 8.673 1.754 12.101 3.118 3.868 1.539 7.815 3.109 13.853 3.109 3.891 0 8.648-.652 14.812-2.385a1.502 1.502 0 0 0 1.038-1.851 1.503 1.503 0 0 0-1.85-1.037zM72.443 79.153c-11.964 3.812-20.245.947-29.012-2.084-7.895-2.729-16.06-5.553-27.032-3.357a1.5 1.5 0 0 0 .588 2.942c10.176-2.032 17.602.533 25.463 3.251 5.82 2.013 11.77 4.07 18.838 4.069 3.673 0 7.649-.556 12.064-1.961a1.501 1.501 0 0 0-.909-2.86zM36.823 27.46c3.152 0 5.717-2.564 5.717-5.717s-2.564-5.717-5.717-5.717-5.717 2.564-5.717 5.717 2.564 5.717 5.717 5.717zm0-8.433c1.498 0 2.717 1.219 2.717 2.717s-1.219 2.717-2.717 2.717c-1.499 0-2.717-1.219-2.717-2.717s1.218-2.717 2.717-2.717z"></path></g><!----></svg>