<svg data-v-423bf9ae="" xmlns="http://www.w3.org/2000/svg" viewBox="0 0 305.6962033502595 60" class="font"><!----><!----><!----><g data-v-423bf9ae="" id="277a5655-5e3c-478c-9c47-fcd64067fdd4" fill="black" transform="matrix(5.424954414367676,0,0,5.424954414367676,-4.014462947845459,-16.708860397338867)"><path d="M0.74 8.88C0.74 12.01 3.21 14.14 6.03 14.14C8.55 14.14 10.50 12.56 10.93 10.46L9.81 10.46C9.38 12.11 7.91 13.13 6.03 13.13C3.81 13.13 1.85 11.44 1.85 8.88C1.85 6.33 3.81 4.65 6.03 4.65C8.16 4.65 9.55 5.99 9.77 7.78L10.89 7.78C10.70 5.61 8.82 3.64 6.03 3.64C3.19 3.64 0.74 5.75 0.74 8.88ZM15.53 6.58C13.80 6.58 12.59 7.56 12.49 9.02L13.48 9.02C13.54 8.18 14.34 7.49 15.48 7.49C16.77 7.49 17.53 8.16 17.53 9.67L17.53 9.94L15.26 9.93C13.34 9.93 12.19 10.79 12.19 12.01C12.19 13.27 13.24 14.14 14.59 14.14C15.88 14.14 16.90 13.55 17.65 12.96L17.86 14L18.55 14L18.55 9.67C18.55 7.70 17.46 6.58 15.53 6.58ZM13.23 12.00C13.23 11.19 13.94 10.79 15.27 10.79L17.53 10.79L17.53 12.11C16.77 12.70 15.82 13.22 14.80 13.22C13.94 13.22 13.23 12.78 13.23 12.00ZM21.98 3.08L20.93 3.08L20.93 14L21.98 14ZM25.52 3.08L24.47 3.08L24.47 14L25.52 14ZM31.29 8.88C31.29 12.01 33.74 14.14 36.64 14.14C39.56 14.14 42.01 12.01 42.01 8.88C42.01 5.75 39.56 3.64 36.64 3.64C33.74 3.64 31.29 5.75 31.29 8.88ZM32.40 8.88C32.40 6.30 34.34 4.61 36.64 4.61C38.96 4.61 40.89 6.30 40.89 8.88C40.89 11.47 38.96 13.17 36.64 13.17C34.34 13.17 32.40 11.47 32.40 8.88ZM49.35 6.72L49.35 12.18C48.41 12.82 47.46 13.22 46.63 13.22C45.54 13.22 44.94 12.60 44.94 11.42L44.94 6.72L43.89 6.72L43.89 11.47C43.89 13.22 44.83 14.14 46.37 14.14C47.45 14.14 48.40 13.78 49.48 13.06L49.66 14L50.40 14L50.40 6.72ZM51.95 7.62L53.09 7.62L53.09 12.00C53.09 13.57 53.96 14.14 55.08 14.14C55.82 14.14 56.52 13.99 57.09 13.73L56.98 12.84C56.46 13.06 55.87 13.22 55.23 13.22C54.54 13.22 54.12 12.85 54.12 11.98L54.12 7.62L57.05 7.62L57.05 6.72L54.12 6.72L54.12 4.65L53.12 4.91L53.12 6.72L51.95 6.72Z"></path></g><!----><!----></svg>